<svg version="1.1" id="Layer_1" xmlns="http://www.w3.org/2000/svg" x="0" y="0" viewBox="0 0 100 100" xml:space="preserve"><style>.st0{fill:#4f46e5}.st2{fill:#fff}</style><path class="st0" d="M16.9.4h66.3c8.9 0 16.1 7.3 16.1 16.3v66.7c0 9-7.2 16.3-16.1 16.3H16.9C8 99.6.7 92.4.7 83.4V16.6C.7 7.6 8 .4 16.9.4"/><path d="M18.7 18.7h62.5v62.5H18.7z" style="fill:none;stroke:#fff;stroke-width:4.5"/><path class="st2" d="M10.9 10.9h15.6v15.6H10.9zm0 62.5h15.6V89H10.9zm62.5 0H89V89H73.4zm0-62.5H89v15.6H73.4z"/><path class="st0" d="M14.3 76.8H23v8.7h-8.7zm0-62.5H23V23h-8.7zm62.5 0h8.7V23h-8.7zm0 62.5h8.7v8.7h-8.7z"/><path class="st2" d="M50.9 31 40.2 60.4h-4.4l12.3-32.3h2.8zm8.3 17.5V52H41.1v-3.5zm.6 11.9L49.1 31l-.1-2.8h2.8l12.3 32.3h-4.3z"/><path style="fill:none;stroke:#fff;stroke-width:4;stroke-linecap:round;stroke-linejoin:round" d="M33.9 67.8h32.2"/></svg>